<mxfile host="app.diagrams.net" modified="2024-06-14T19:11:00.055Z" agent="Mozilla/5.0 (Windows NT 10.0; Win64; x64) AppleWebKit/537.36 (KHTML, like Gecko) Chrome/125.0.0.0 Safari/537.36 Edg/125.0.0.0" etag="8xbLecddr615YFSxkjsS" version="24.5.4" type="device">
  <diagram name="PÃ¡gina-1" id="YfQ2vDIhheC9Xf8iHeby">
    <mxGraphModel dx="1002" dy="577" grid="1" gridSize="10" guides="1" tooltips="1" connect="1" arrows="1" fold="1" page="1" pageScale="1" pageWidth="827" pageHeight="1169" math="0" shadow="0">
      <root>
        <mxCell id="0" />
        <mxCell id="1" parent="0" />
        <mxCell id="9a1TqCR-d1-Th-rVveow-3" value="" style="edgeStyle=orthogonalEdgeStyle;rounded=0;orthogonalLoop=1;jettySize=auto;html=1;" edge="1" parent="1" source="9a1TqCR-d1-Th-rVveow-1" target="9a1TqCR-d1-Th-rVveow-2">
          <mxGeometry relative="1" as="geometry" />
        </mxCell>
        <mxCell id="9a1TqCR-d1-Th-rVveow-1" value="inicio&amp;nbsp;" style="strokeWidth=2;html=1;shape=mxgraph.flowchart.start_1;whiteSpace=wrap;" vertex="1" parent="1">
          <mxGeometry x="364" y="30" width="100" height="60" as="geometry" />
        </mxCell>
        <mxCell id="9a1TqCR-d1-Th-rVveow-5" value="" style="edgeStyle=orthogonalEdgeStyle;rounded=0;orthogonalLoop=1;jettySize=auto;html=1;entryX=0.492;entryY=0.187;entryDx=0;entryDy=0;entryPerimeter=0;" edge="1" parent="1" source="9a1TqCR-d1-Th-rVveow-2" target="9a1TqCR-d1-Th-rVveow-4">
          <mxGeometry relative="1" as="geometry" />
        </mxCell>
        <mxCell id="9a1TqCR-d1-Th-rVveow-2" value="&amp;nbsp; &amp;nbsp; num1, num2, num3,&lt;div&gt;auxiliar&lt;br&gt;&lt;/div&gt;" style="shape=parallelogram;html=1;strokeWidth=2;perimeter=parallelogramPerimeter;whiteSpace=wrap;rounded=1;arcSize=12;size=0.23;" vertex="1" parent="1">
          <mxGeometry x="364" y="140" width="100" height="60" as="geometry" />
        </mxCell>
        <mxCell id="9a1TqCR-d1-Th-rVveow-10" value="" style="edgeStyle=orthogonalEdgeStyle;rounded=0;orthogonalLoop=1;jettySize=auto;html=1;" edge="1" parent="1" source="9a1TqCR-d1-Th-rVveow-4" target="9a1TqCR-d1-Th-rVveow-6">
          <mxGeometry relative="1" as="geometry" />
        </mxCell>
        <mxCell id="9a1TqCR-d1-Th-rVveow-4" value="num1,&amp;nbsp;&lt;div&gt;num2, num3&lt;/div&gt;" style="html=1;strokeWidth=2;shape=manualInput;whiteSpace=wrap;rounded=1;size=26;arcSize=11;" vertex="1" parent="1">
          <mxGeometry x="364" y="250" width="100" height="60" as="geometry" />
        </mxCell>
        <mxCell id="9a1TqCR-d1-Th-rVveow-8" value="" style="edgeStyle=orthogonalEdgeStyle;rounded=0;orthogonalLoop=1;jettySize=auto;html=1;" edge="1" parent="1" source="9a1TqCR-d1-Th-rVveow-6" target="9a1TqCR-d1-Th-rVveow-7">
          <mxGeometry relative="1" as="geometry" />
        </mxCell>
        <mxCell id="9a1TqCR-d1-Th-rVveow-9" value="VERDADE" style="edgeLabel;html=1;align=center;verticalAlign=middle;resizable=0;points=[];" vertex="1" connectable="0" parent="9a1TqCR-d1-Th-rVveow-8">
          <mxGeometry x="-0.1143" relative="1" as="geometry">
            <mxPoint as="offset" />
          </mxGeometry>
        </mxCell>
        <mxCell id="9a1TqCR-d1-Th-rVveow-12" value="" style="edgeStyle=orthogonalEdgeStyle;rounded=0;orthogonalLoop=1;jettySize=auto;html=1;" edge="1" parent="1" source="9a1TqCR-d1-Th-rVveow-6" target="9a1TqCR-d1-Th-rVveow-11">
          <mxGeometry relative="1" as="geometry" />
        </mxCell>
        <mxCell id="9a1TqCR-d1-Th-rVveow-13" value="FALSO" style="edgeLabel;html=1;align=center;verticalAlign=middle;resizable=0;points=[];" vertex="1" connectable="0" parent="9a1TqCR-d1-Th-rVveow-12">
          <mxGeometry x="-0.1467" y="1" relative="1" as="geometry">
            <mxPoint as="offset" />
          </mxGeometry>
        </mxCell>
        <mxCell id="9a1TqCR-d1-Th-rVveow-6" value="num1 &amp;gt; num2&amp;nbsp;" style="strokeWidth=2;html=1;shape=mxgraph.flowchart.decision;whiteSpace=wrap;" vertex="1" parent="1">
          <mxGeometry x="364" y="360" width="100" height="100" as="geometry" />
        </mxCell>
        <mxCell id="9a1TqCR-d1-Th-rVveow-7" value="&lt;div&gt;auxiliar=num1&lt;/div&gt;&lt;div&gt;&lt;span style=&quot;background-color: initial;&quot;&gt;num1=num2&lt;/span&gt;&lt;/div&gt;&lt;div&gt;&lt;span style=&quot;background-color: initial;&quot;&gt;num2=auxiliar&lt;/span&gt;&lt;/div&gt;" style="rounded=1;whiteSpace=wrap;html=1;absoluteArcSize=1;arcSize=14;strokeWidth=2;" vertex="1" parent="1">
          <mxGeometry x="180" y="360" width="100" height="100" as="geometry" />
        </mxCell>
        <mxCell id="9a1TqCR-d1-Th-rVveow-15" value="" style="edgeStyle=orthogonalEdgeStyle;rounded=0;orthogonalLoop=1;jettySize=auto;html=1;" edge="1" parent="1" source="9a1TqCR-d1-Th-rVveow-11" target="9a1TqCR-d1-Th-rVveow-14">
          <mxGeometry relative="1" as="geometry" />
        </mxCell>
        <mxCell id="9a1TqCR-d1-Th-rVveow-20" value="VERDADE" style="edgeLabel;html=1;align=center;verticalAlign=middle;resizable=0;points=[];" vertex="1" connectable="0" parent="9a1TqCR-d1-Th-rVveow-15">
          <mxGeometry x="-0.1143" relative="1" as="geometry">
            <mxPoint as="offset" />
          </mxGeometry>
        </mxCell>
        <mxCell id="9a1TqCR-d1-Th-rVveow-17" value="" style="edgeStyle=orthogonalEdgeStyle;rounded=0;orthogonalLoop=1;jettySize=auto;html=1;" edge="1" parent="1" source="9a1TqCR-d1-Th-rVveow-11" target="9a1TqCR-d1-Th-rVveow-16">
          <mxGeometry relative="1" as="geometry">
            <Array as="points">
              <mxPoint x="630" y="480" />
              <mxPoint x="780" y="480" />
            </Array>
          </mxGeometry>
        </mxCell>
        <mxCell id="9a1TqCR-d1-Th-rVveow-32" value="FALSO" style="edgeLabel;html=1;align=center;verticalAlign=middle;resizable=0;points=[];" vertex="1" connectable="0" parent="9a1TqCR-d1-Th-rVveow-17">
          <mxGeometry x="-0.3367" y="-2" relative="1" as="geometry">
            <mxPoint as="offset" />
          </mxGeometry>
        </mxCell>
        <mxCell id="9a1TqCR-d1-Th-rVveow-11" value="num1 &amp;gt; num3" style="strokeWidth=2;html=1;shape=mxgraph.flowchart.decision;whiteSpace=wrap;" vertex="1" parent="1">
          <mxGeometry x="580" y="360" width="100" height="100" as="geometry" />
        </mxCell>
        <mxCell id="9a1TqCR-d1-Th-rVveow-14" value="&lt;div&gt;auxiliar=num1&lt;/div&gt;&lt;div&gt;&lt;span style=&quot;background-color: initial;&quot;&gt;num2=num3&lt;/span&gt;&lt;/div&gt;&lt;div&gt;&lt;span style=&quot;background-color: initial;&quot;&gt;num3=auxiliar&lt;/span&gt;&lt;/div&gt;" style="rounded=1;whiteSpace=wrap;html=1;absoluteArcSize=1;arcSize=14;strokeWidth=2;" vertex="1" parent="1">
          <mxGeometry x="790" y="360" width="100" height="100" as="geometry" />
        </mxCell>
        <mxCell id="9a1TqCR-d1-Th-rVveow-19" value="" style="edgeStyle=orthogonalEdgeStyle;rounded=0;orthogonalLoop=1;jettySize=auto;html=1;" edge="1" parent="1" source="9a1TqCR-d1-Th-rVveow-16" target="9a1TqCR-d1-Th-rVveow-18">
          <mxGeometry relative="1" as="geometry" />
        </mxCell>
        <mxCell id="9a1TqCR-d1-Th-rVveow-22" value="VERDADE" style="edgeLabel;html=1;align=center;verticalAlign=middle;resizable=0;points=[];" vertex="1" connectable="0" parent="9a1TqCR-d1-Th-rVveow-19">
          <mxGeometry x="0.0286" relative="1" as="geometry">
            <mxPoint as="offset" />
          </mxGeometry>
        </mxCell>
        <mxCell id="9a1TqCR-d1-Th-rVveow-16" value="num2 &amp;gt; num3" style="strokeWidth=2;html=1;shape=mxgraph.flowchart.decision;whiteSpace=wrap;" vertex="1" parent="1">
          <mxGeometry x="730" y="585" width="100" height="100" as="geometry" />
        </mxCell>
        <mxCell id="9a1TqCR-d1-Th-rVveow-18" value="&lt;div&gt;auxiliar=num2&lt;/div&gt;&lt;div&gt;&lt;span style=&quot;background-color: initial;&quot;&gt;num2=num3&lt;/span&gt;&lt;/div&gt;&lt;div&gt;&lt;span style=&quot;background-color: initial;&quot;&gt;num3=auxiliar&lt;/span&gt;&lt;/div&gt;" style="rounded=1;whiteSpace=wrap;html=1;absoluteArcSize=1;arcSize=14;strokeWidth=2;" vertex="1" parent="1">
          <mxGeometry x="920" y="585" width="100" height="100" as="geometry" />
        </mxCell>
        <mxCell id="9a1TqCR-d1-Th-rVveow-23" value="" style="strokeWidth=2;html=1;shape=mxgraph.flowchart.start_2;whiteSpace=wrap;" vertex="1" parent="1">
          <mxGeometry x="464" y="720" width="46" height="40" as="geometry" />
        </mxCell>
        <mxCell id="9a1TqCR-d1-Th-rVveow-24" style="edgeStyle=orthogonalEdgeStyle;rounded=0;orthogonalLoop=1;jettySize=auto;html=1;exitX=0.5;exitY=1;exitDx=0;exitDy=0;exitPerimeter=0;entryX=0.145;entryY=0.145;entryDx=0;entryDy=0;entryPerimeter=0;" edge="1" parent="1" source="9a1TqCR-d1-Th-rVveow-6" target="9a1TqCR-d1-Th-rVveow-23">
          <mxGeometry relative="1" as="geometry" />
        </mxCell>
        <mxCell id="9a1TqCR-d1-Th-rVveow-26" style="edgeStyle=orthogonalEdgeStyle;rounded=0;orthogonalLoop=1;jettySize=auto;html=1;exitX=0.092;exitY=0.62;exitDx=0;exitDy=0;exitPerimeter=0;" edge="1" parent="1" source="9a1TqCR-d1-Th-rVveow-11">
          <mxGeometry relative="1" as="geometry">
            <mxPoint x="490" y="720" as="targetPoint" />
            <Array as="points">
              <mxPoint x="520" y="462" />
              <mxPoint x="520" y="720" />
            </Array>
          </mxGeometry>
        </mxCell>
        <mxCell id="9a1TqCR-d1-Th-rVveow-27" style="edgeStyle=orthogonalEdgeStyle;rounded=0;orthogonalLoop=1;jettySize=auto;html=1;entryX=1;entryY=0.5;entryDx=0;entryDy=0;entryPerimeter=0;" edge="1" parent="1" source="9a1TqCR-d1-Th-rVveow-16" target="9a1TqCR-d1-Th-rVveow-23">
          <mxGeometry relative="1" as="geometry" />
        </mxCell>
        <mxCell id="9a1TqCR-d1-Th-rVveow-28" value="fim" style="strokeWidth=2;html=1;shape=mxgraph.flowchart.start_1;whiteSpace=wrap;" vertex="1" parent="1">
          <mxGeometry x="425" y="940" width="100" height="60" as="geometry" />
        </mxCell>
        <mxCell id="9a1TqCR-d1-Th-rVveow-33" value="" style="edgeStyle=orthogonalEdgeStyle;rounded=0;orthogonalLoop=1;jettySize=auto;html=1;" edge="1" parent="1" source="9a1TqCR-d1-Th-rVveow-29" target="9a1TqCR-d1-Th-rVveow-28">
          <mxGeometry relative="1" as="geometry" />
        </mxCell>
        <mxCell id="9a1TqCR-d1-Th-rVveow-29" value="Ordem crescente dos valores: &quot;, num1, &quot;, &quot;, num2,&quot;, &quot;,num3" style="strokeWidth=2;html=1;shape=mxgraph.flowchart.display;whiteSpace=wrap;" vertex="1" parent="1">
          <mxGeometry x="390" y="810" width="170" height="80" as="geometry" />
        </mxCell>
        <mxCell id="9a1TqCR-d1-Th-rVveow-30" style="edgeStyle=orthogonalEdgeStyle;rounded=0;orthogonalLoop=1;jettySize=auto;html=1;entryX=0.576;entryY=-0.013;entryDx=0;entryDy=0;entryPerimeter=0;" edge="1" parent="1" source="9a1TqCR-d1-Th-rVveow-23" target="9a1TqCR-d1-Th-rVveow-29">
          <mxGeometry relative="1" as="geometry" />
        </mxCell>
      </root>
    </mxGraphModel>
  </diagram>
</mxfile>
